# xmcd
#
# Track frame offsets:
#	150
#	35987
#	65962
#	102171
#	125979
#	148911
#	171063
#	189175
#	206712
#	245448
#	274720
#	291766
#	318503
#
# Disc length: 4435
#
# Revision: 2
# Processed by: cddbd v1.5.1PL0 Copyright (c) Steve Scherf et al.
# Submitted via: CDex 1.51
# Normalized: r1:TRMNUM
#
DISCID=d611510d
DTITLE=Various Artist - Best Of The 2003 Tampa Bay Blues Festival
DYEAR=2004
DGENRE=Blues
TTITLE0=Sinister Woman (Rod Piazza)
TTITLE1=Oh Baby (Rod Piazza and Kim Wilson)
TTITLE2=Telephone Blues (Rod Piazza and Kim Wilson)
TTITLE3=Goin' Down Slow (Rod Piazza and Kim Wilson)
TTITLE4=Ahw Baby (You're Lookin' Good Again Tonight) (Rod Piazza and Kim Wilson)
TTITLE5=Blue Midnight (Rod Piazza and Kim Wilson)
TTITLE6=Instrumental Jam (Rod Piazza and Kim Wilson)
TTITLE7=I Wanna Thank You Baby (Delbert McClinton)
TTITLE8=I Want To Love You (Delbert McClinton)
TTITLE9=B-Movie Boxcar Blues (Delbert McClinton)
TTITLE10=New York City (Delbert McClinton)
TTITLE11=Leap Of Faith (Delbert McClinton)
TTITLE12=Givin' It Up For Your Love (Delbert McClinton)
EXTD=YEAR: 2004
EXTT0=
EXTT1=
EXTT2=
EXTT3=
EXTT4=
EXTT5=
EXTT6=
EXTT7=
EXTT8=
EXTT9=
EXTT10=
EXTT11=
EXTT12=
PLAYORDER=
